<?xml version="1.0" standalone="no"?>
<!DOCTYPE svg PUBLIC "-//W3C//DTD SVG 20010904//EN"
 "http://www.w3.org/TR/2001/REC-SVG-20010904/DTD/svg10.dtd">
<svg version="1.0" xmlns="http://www.w3.org/2000/svg"
 width="168.000000pt" height="168.000000pt" viewBox="0 0 168.000000 168.000000"
 preserveAspectRatio="xMidYMid meet">
<metadata>
Created by potrace 1.11, written by Peter Selinger 2001-2013
</metadata>
<g transform="translate(0.000000,168.000000) scale(0.100000,-0.100000)"
fill="#000000" stroke="none">
<path d="M1338 1140 c-25 -26 -29 -36 -24 -63 4 -18 24 -49 45 -70 l38 -38 32
26 c45 38 60 73 49 112 -18 67 -89 83 -140 33z"/>
<path d="M446 1150 c-99 -32 -170 -139 -159 -242 8 -82 68 -164 138 -189 32
-12 35 -17 35 -51 l0 -38 -114 0 c-123 0 -149 -9 -141 -51 10 -49 9 -49 310
-49 235 0 285 2 295 15 16 19 19 46 8 68 -8 15 -25 17 -128 17 l-120 0 0 38
c0 34 3 39 35 51 45 16 102 73 122 120 21 49 20 138 -2 185 -21 44 -65 90
-106 111 -36 19 -135 27 -173 15z m134 -115 c31 -16 60 -70 60 -112 0 -61 -60
-116 -124 -116 -132 0 -174 172 -56 231 44 21 74 21 120 -3z"/>
<path d="M976 1089 c-39 -11 -74 -45 -82 -83 -11 -45 -12 -325 -1 -366 12 -45
41 -77 81 -86 44 -11 258 -12 279 -2 23 12 23 64 -1 77 -10 5 -67 10 -126 10
-66 0 -114 5 -122 12 -21 18 -20 322 1 339 10 9 51 12 127 12 65 0 118 4 125
10 17 13 17 62 0 76 -15 12 -239 13 -281 1z"/>
<path d="M1362 938 c-9 -9 -12 -68 -12 -205 l0 -193 25 -12 c18 -8 35 -9 53
-2 l27 9 2 195 c1 124 -2 199 -9 207 -13 16 -70 17 -86 1z"/>
</g>
</svg>
